<?xml version="1.0" encoding="UTF-8" standalone="no"?>
<svg
   xmlns:dc="http://purl.org/dc/elements/1.1/"
   xmlns:cc="http://creativecommons.org/ns#"
   xmlns:rdf="http://www.w3.org/1999/02/22-rdf-syntax-ns#"
   xmlns:svg="http://www.w3.org/2000/svg"
   xmlns="http://www.w3.org/2000/svg"
   xmlns:xlink="http://www.w3.org/1999/xlink"
   xmlns:sodipodi="http://sodipodi.sourceforge.net/DTD/sodipodi-0.dtd"
   xmlns:inkscape="http://www.inkscape.org/namespaces/inkscape"
   version="1.1"
   width="350"
   height="128"
   viewBox="0 0 273.4375 100"
   id="svg76"
   sodipodi:docname="StitchDraft.svg"
   inkscape:version="0.92.1 r15371"
   inkscape:export-filename="C:\Github Src\HydraDoc\WIP\StitchDraft_326x128.png"
   inkscape:export-xdpi="96"
   inkscape:export-ydpi="96">
  <metadata
     id="metadata80">
    <rdf:RDF>
      <cc:Work
         rdf:about="">
        <dc:format>image/svg+xml</dc:format>
        <dc:type
           rdf:resource="http://purl.org/dc/dcmitype/StillImage" />
        <dc:title></dc:title>
      </cc:Work>
    </rdf:RDF>
  </metadata>
  <sodipodi:namedview
     pagecolor="#ffffff"
     bordercolor="#666666"
     borderopacity="1"
     objecttolerance="10"
     gridtolerance="10"
     guidetolerance="10"
     inkscape:pageopacity="0"
     inkscape:pageshadow="2"
     inkscape:window-width="1680"
     inkscape:window-height="988"
     id="namedview78"
     showgrid="false"
     showborder="true"
     inkscape:zoom="1.1360799"
     inkscape:cx="-100.31485"
     inkscape:cy="14.38443"
     inkscape:window-x="1672"
     inkscape:window-y="-8"
     inkscape:window-maximized="1"
     inkscape:current-layer="layer9"
     inkscape:pagecheckerboard="false"
     borderlayer="false" />
  <defs
     id="defs64">
    <linearGradient
       id="Gradient_2"
       gradientUnits="userSpaceOnUse"
       x1="94"
       y1="25"
       x2="5"
       y2="25"
       spreadMethod="pad">
      <stop
         offset="0%"
         stop-color="#FFFFFF"
         stop-opacity="0.1"
         id="stop2" />
      <stop
         offset="100%"
         stop-color="#FFFFFF"
         stop-opacity="0.7"
         id="stop4" />
    </linearGradient>
    <linearGradient
       id="Gradient_3"
       gradientUnits="userSpaceOnUse"
       x1="7"
       y1="38"
       x2="95"
       y2="38"
       spreadMethod="pad">
      <stop
         offset="0%"
         stop-color="#FFFFFF"
         stop-opacity="0.1"
         id="stop7" />
      <stop
         offset="100%"
         stop-color="#FFFFFF"
         stop-opacity="0.7"
         id="stop9" />
    </linearGradient>
    <linearGradient
       id="Gradient_4"
       gradientUnits="userSpaceOnUse"
       x1="93"
       y1="38"
       x2="5"
       y2="38"
       spreadMethod="pad">
      <stop
         offset="0%"
         stop-color="#FFFFFF"
         stop-opacity="0.1"
         id="stop12" />
      <stop
         offset="100%"
         stop-color="#FFFFFF"
         stop-opacity="0.7"
         id="stop14" />
    </linearGradient>
    <g
       id="background">
      <path
         d="m 94.55,28.5 q 0,-1.7 -1,-3.45 -1.05,-1.8 -2.5,-2.65 L 53.55,0.85 Q 52.1,0 50,0 47.95,0 46.5,0.85 L 9,22.4 Q 7.5,23.25 6.5,25.05 5.45,26.8 5.45,28.5 v 43 q 0,1.7 1.05,3.45 1,1.8 2.5,2.65 l 37.5,21.55 q 1.45,0.85 3.5,0.85 2.1,0 3.55,-0.85 L 91.05,77.6 q 1.45,-0.85 2.5,-2.65 1,-1.75 1,-3.45 z"
         id="path17"
         inkscape:connector-curvature="0"
         style="fill:url(#background-gradient);stroke:none" />
    </g>
    <mask
       id="mask">
      <path
         d="m 94.55,28.5 q 0,-1.7 -1,-3.45 -1.05,-1.8 -2.5,-2.65 L 53.55,0.85 Q 52.1,0 50,0 47.95,0 46.5,0.85 L 9,22.4 Q 7.5,23.25 6.5,25.05 5.45,26.8 5.45,28.5 v 43 q 0,1.7 1.05,3.45 1,1.8 2.5,2.65 l 37.5,21.55 q 1.45,0.85 3.5,0.85 2.1,0 3.55,-0.85 L 91.05,77.6 q 1.45,-0.85 2.5,-2.65 1,-1.75 1,-3.45 z"
         id="path20"
         inkscape:connector-curvature="0"
         style="fill:#ffffff;stroke:none" />
    </mask>
    <g
       id="gloss-top">
      <path
         d="m 93.05,25.05 q -1,-1.8 -2.45,-2.65 L 53.3,0.85 Q 51.8,0 49.8,0 47.75,0 46.25,0.85 L 8.95,22.4 Q 7.5,23.25 6.5,25.05 5.45,26.8 5.45,28.5 V 50 H 94.1 V 28.5 q 0,-1.7 -1.05,-3.45 z"
         id="path23"
         inkscape:connector-curvature="0"
         style="fill:url(#Gradient_2);stroke:none" />
    </g>
    <g
       id="gloss-right">
      <path
         d="m 93.55,25.05 q -1,-1.8 -2.45,-2.65 L 53.8,0.85 Q 52.3,0 50.3,0 48.25,0 46.75,0.85 L 9.45,22.4 Q 8.1,23.2 7,25 l 86.6,49.9 q 1,-1.75 1,-3.4 v -43 q 0,-1.7 -1.05,-3.45 z"
         id="path26"
         inkscape:connector-curvature="0"
         style="fill:url(#Gradient_3);stroke:none" />
    </g>
    <g
       id="gloss-left">
      <path
         d="M 93.05,25 Q 91.95,23.2 90.6,22.4 L 53.3,0.85 Q 51.8,0 49.8,0 47.75,0 46.25,0.85 L 8.95,22.4 Q 7.5,23.25 6.5,25.05 5.45,26.8 5.45,28.5 v 43 q 0,1.75 1.05,3.5 z"
         id="path29"
         inkscape:connector-curvature="0"
         style="fill:url(#Gradient_4);stroke:none" />
    </g>
    <linearGradient
       id="background-gradient"
       x1="0"
       y1="0"
       y2="1"
       x2="0"
       gradientTransform="rotate(-25,0.5,0.5)">
      <stop
         stop-color="#3366cc"
         offset="40%"
         id="stop32" />
      <stop
         stop-color="#000000"
         offset="100%"
         id="stop34" />
    </linearGradient>
    <filter
       id="drop-shadow">
      <feGaussianBlur
         in="SourceAlpha"
         stdDeviation="1"
         id="feGaussianBlur37" />
      <feComponentTransfer
         id="feComponentTransfer41">
        <feFuncA
           type="linear"
           slope="1"
           id="feFuncA39" />
      </feComponentTransfer>
      <feOffset
         dx="-10"
         dy="10"
         result="offsetblur"
         id="feOffset43" />
      <feFlood
         flood-color="#000000"
         id="feFlood45" />
      <feComposite
         in2="offsetblur"
         operator="in"
         id="feComposite47" />
      <feMerge
         id="feMerge53">
        <feMergeNode
           id="feMergeNode49" />
        <feMergeNode
           in="SourceGraphic"
           id="feMergeNode51" />
      </feMerge>
    </filter>
    <g
       transform="matrix(1.0235415,0,0,1.0235415,-1.2282496,-1.1770772)"
       id="picture">
      <path
         d="m 70.6,23 c 0.6,0 1.2,-0.1 1.7,-0.2 l 12,19.5 c 1.4,-1.3 3.2,-2.2 5.1,-2.6 L 76.9,19.4 C 77.6,18.3 78,16.9 78,15.5 78,11.3 74.7,8 70.6,8 c -4.1,0 -7.5,3.3 -7.5,7.5 0,4.1 3.3,7.5 7.5,7.5 z m 0,-10.4 c 1.5,0 2.8,1.2 2.8,2.8 -0.1,1.6 -1.3,2.8 -2.8,2.8 -1.5,0 -2.8,-1.2 -2.8,-2.8 0,-1.5 1.2,-2.8 2.8,-2.8 z M 29.3,22.9 c 0.6,0 1.2,-0.1 1.7,-0.2 l 12,19.5 c 1.4,-1.3 3.2,-2.2 5.1,-2.6 L 35.6,19.4 c 0.3,-0.6 0.6,-1.2 0.8,-1.8 h 23.9 c -0.1,-0.7 -0.2,-1.4 -0.2,-2.2 0,-1.2 0.2,-2.4 0.6,-3.5 H 35.9 c -1.3,-2.4 -3.7,-4 -6.6,-4 -4.1,0 -7.5,3.3 -7.5,7.5 0,4.1 3.3,7.5 7.5,7.5 z m 0,-10.3 c 1.5,0 2.8,1.2 2.8,2.8 -0.1,1.6 -1.3,2.8 -2.8,2.8 -1.5,0 -2.8,-1.2 -2.8,-2.8 0,-1.5 1.2,-2.8 2.8,-2.8 z m 55,45.2 -12,19.5 c -0.6,-0.1 -1.1,-0.2 -1.7,-0.2 -4.1,0 -7.5,3.3 -7.5,7.5 0,4.1 3.3,7.5 7.5,7.5 4.1,0 7.5,-3.3 7.5,-7.5 0,-1.4 -0.4,-2.8 -1.1,-3.9 L 89.4,60.4 C 87.4,59.9 85.7,59 84.3,57.8 Z M 70.6,87.3 c -1.5,0 -2.8,-1.2 -2.8,-2.8 0,-1.5 1.2,-2.8 2.8,-2.8 1.5,0 2.8,1.2 2.8,2.8 -0.1,1.6 -1.3,2.8 -2.8,2.8 z M 91.3,42.5 c -2.9,0 -5.3,1.6 -6.6,4 H 59.9 c 0.4,1.1 0.6,2.3 0.6,3.5 0,0.7 -0.1,1.5 -0.2,2.2 h 23.9 c 0.9,3.1 3.8,5.3 7.2,5.3 4.1,0 7.5,-3.3 7.5,-7.5 -0.1,-4.1 -3.5,-7.5 -7.6,-7.5 z m 0,10.3 c -1.5,0 -2.8,-1.2 -2.8,-2.8 0,-1.5 1.2,-2.8 2.8,-2.8 1.5,0 2.8,1.2 2.8,2.8 0,1.5 -1.3,2.8 -2.8,2.8 z m -24,21.9 -12,-19.5 c 1.3,-1.3 2.1,-3.2 2.1,-5.2 0,-2 -0.8,-3.9 -2.1,-5.2 L 67.2,25.4 C 65.3,24.8 63.7,23.7 62.5,22.2 L 50.1,42.5 c -3.4,0 -6.3,2.2 -7.2,5.3 H 19 c 0.1,0.7 0.2,1.4 0.2,2.2 0,1.2 -0.2,2.4 -0.6,3.5 h 24.8 c 1.3,2.4 3.7,4 6.6,4 h 0.1 l 12.5,20.4 c 1.2,-1.5 2.8,-2.6 4.7,-3.2 z M 50,52.8 c -1.5,0 -2.8,-1.2 -2.8,-2.8 0,-1.6 1.2,-2.8 2.8,-2.8 1.5,0 2.8,1.2 2.8,2.8 0,1.6 -1.3,2.8 -2.8,2.8 z M 60.3,82.1 H 36.4 C 36.2,81.5 36,81 35.7,80.5 L 48.1,60.3 C 46.2,59.9 44.4,59 43,57.7 L 31.1,77 c -0.6,-0.2 -1.2,-0.2 -1.9,-0.2 -4.1,0 -7.5,3.3 -7.5,7.5 v 0.2 c 0.1,4.2 3.4,7.5 7.6,7.5 3,0 5.5,-1.7 6.7,-4.2 h 24.7 c -0.4,-1.1 -0.6,-2.3 -0.6,-3.5 0,-0.7 0.1,-1.5 0.2,-2.2 z m -31,4.9 c -1.5,0 -2.7,-1.2 -2.8,-2.6 0.1,-1.4 1.3,-2.6 2.8,-2.6 1.5,0 2.7,1.2 2.8,2.6 C 32,85.9 30.8,87 29.3,87 Z M 25.9,74.7 14,55.2 C 15.3,53.9 16.1,52 16.1,50 16.1,48 15.3,46.1 14,44.8 L 25.9,25.4 C 24,24.8 22.4,23.7 21.2,22.2 L 8.8,42.5 H 8.7 c -4.1,0 -7.5,3.3 -7.5,7.5 0,4.1 3.4,7.5 7.5,7.5 l 12.5,20.4 c 1.2,-1.5 2.8,-2.6 4.7,-3.2 z M 8.7,52.8 c -1.6,0 -2.8,-1.3 -2.8,-2.8 0,-1.5 1.3,-2.8 2.8,-2.8 1.5,0 2.8,1.2 2.8,2.8 0,1.6 -1.2,2.8 -2.8,2.8 z"
         id="path56"
         inkscape:connector-curvature="0" />
    </g>
    <linearGradient
       id="picture-gradient"
       x1="1.8566872e-007"
       y1="7.4421802"
       y2="100.27655"
       x2="1.8566872e-007"
       gradientTransform="scale(1.0771873,0.92834363)"
       gradientUnits="userSpaceOnUse">
      <stop
         stop-color="#ffffff"
         offset="0%"
         id="stop59" />
      <stop
         stop-color="#e5eff9"
         offset="100%"
         id="stop61" />
    </linearGradient>
    <linearGradient
       inkscape:collect="always"
       xlink:href="#background-gradient"
       id="linearGradient202"
       gradientTransform="scale(0.94392796,1.0594029)"
       x1="5.7737455"
       y1="0"
       x2="5.7737455"
       y2="94.392799"
       gradientUnits="userSpaceOnUse" />
  </defs>
  <g
     inkscape:groupmode="layer"
     id="layer7"
     inkscape:label="Background"
     style="display:inline"
     sodipodi:insensitive="true">
    <use
       style="fill:url(#linearGradient202)"
       xlink:href="#background"
       id="use66"
       x="0"
       y="0"
       width="100%"
       height="100%" />
  </g>
  <g
     inkscape:groupmode="layer"
     id="layer8"
     inkscape:label="Icon"
     sodipodi:insensitive="true">
    <g
       mask="url(#mask)"
       id="g74">
      <g
         transform="matrix(0.45,0,0,0.45,27.5,27.5)"
         id="g72">
        <g
           id="g70"
           style="filter:url(#drop-shadow)">
          <use
             xlink:href="#picture"
             id="use68"
             style="fill:url(#picture-gradient)"
             x="0"
             y="0"
             width="100%"
             height="100%" />
        </g>
      </g>
    </g>
  </g>
  <g
     inkscape:groupmode="layer"
     id="layer9"
     inkscape:label="Text">
    <flowRoot
       xml:space="preserve"
       id="flowRoot162"
       style="font-style:normal;font-variant:normal;font-weight:normal;font-stretch:normal;font-size:64px;line-height:1.25;font-family:'Open Sans';-inkscape-font-specification:'Open Sans, Normal';font-variant-ligatures:normal;font-variant-caps:normal;font-variant-numeric:normal;font-feature-settings:normal;text-align:start;letter-spacing:0px;word-spacing:0px;writing-mode:lr-tb;text-anchor:start;fill:#000000;fill-opacity:1;stroke:none"
       transform="scale(0.78125)"><flowRegion
         id="flowRegion164"><rect
           id="rect166"
           width="224.54237"
           height="64.542374"
           x="125.28814"
           y="32" /></flowRegion><flowPara
         id="flowPara168">STI</flowPara></flowRoot>    <flowRoot
       xml:space="preserve"
       id="flowRoot170"
       style="font-style:normal;font-variant:normal;font-weight:normal;font-stretch:normal;font-size:53.33333206px;line-height:1.25;font-family:'Open Sans';-inkscape-font-specification:'Open Sans, Normal';font-variant-ligatures:normal;font-variant-caps:normal;font-variant-numeric:normal;font-feature-settings:normal;text-align:start;letter-spacing:0px;word-spacing:0px;writing-mode:lr-tb;text-anchor:start;fill:#000000;fill-opacity:1;stroke:none"><flowRegion
         id="flowRegion172"><rect
           id="rect174"
           width="213.15254"
           height="59.118645"
           x="135.05084"
           y="34.711864" /></flowRegion><flowPara
         id="flowPara176">STIT</flowPara></flowRoot>    <text
       xml:space="preserve"
       style="font-style:normal;font-variant:normal;font-weight:normal;font-stretch:normal;font-size:50px;line-height:1.25;font-family:'Open Sans';-inkscape-font-specification:'Open Sans, Normal';font-variant-ligatures:normal;font-variant-caps:normal;font-variant-numeric:normal;font-feature-settings:normal;text-align:start;letter-spacing:0px;word-spacing:0px;writing-mode:lr-tb;text-anchor:start;fill:#000000;fill-opacity:1;stroke:none;stroke-width:0.78125"
       x="99.999535"
       y="66.335655"
       id="text3796"><tspan
         sodipodi:role="line"
         x="99.999535"
         y="66.335655"
         id="tspan3794"
         style="stroke-width:0.78125"><tspan
           x="99.999535"
           y="66.335655"
           id="tspan3792"
           style="stroke-width:0.78125">STITCH</tspan></tspan></text>
  </g>
</svg>
